<?xml version="1.0" encoding="UTF-8"?>
<!DOCTYPE svg PUBLIC "-//W3C//DTD SVG 1.1//EN" "http://www.w3.org/Graphics/SVG/1.1/DTD/svg11.dtd">
<svg xmlns="http://www.w3.org/2000/svg" version="1.1" width="225px" height="225px" style="shape-rendering:geometricPrecision; text-rendering:geometricPrecision; image-rendering:optimizeQuality; fill-rule:evenodd; clip-rule:evenodd" xmlns:xlink="http://www.w3.org/1999/xlink">
<g><path style="opacity:1" fill="#fdfdfd" d="M -0.5,-0.5 C 35.8333,-0.5 72.1667,-0.5 108.5,-0.5C 62.7557,13.9208 26.4224,40.9208 -0.5,80.5C -0.5,53.5 -0.5,26.5 -0.5,-0.5 Z"/></g>
<g><path style="opacity:1" fill="#fdfdfd" d="M 115.5,-0.5 C 151.833,-0.5 188.167,-0.5 224.5,-0.5C 224.5,26.5 224.5,53.5 224.5,80.5C 197.799,40.6384 161.465,13.6384 115.5,-0.5 Z"/></g>
<g><path style="opacity:1" fill="#1c1816" d="M 108.5,-0.5 C 110.833,-0.5 113.167,-0.5 115.5,-0.5C 161.465,13.6384 197.799,40.6384 224.5,80.5C 224.5,86.1667 224.5,91.8333 224.5,97.5C 222.196,138.913 208.696,176.246 184,209.5C 179.092,213.143 173.592,215.643 167.5,217C 155.863,220.331 144.197,222.831 132.5,224.5C 118.167,224.5 103.833,224.5 89.5,224.5C 73.9773,222.022 58.644,218.188 43.5,213C 16.1008,178.968 1.43415,140.135 -0.5,96.5C -0.5,91.1667 -0.5,85.8333 -0.5,80.5C 26.4224,40.9208 62.7557,13.9208 108.5,-0.5 Z"/></g>
<g><path style="opacity:1" fill="#0a903d" d="M 110.5,1.5 C 157.227,14.0695 194.06,40.4029 221,80.5C 223.283,127.644 210.283,169.977 182,207.5C 180.786,209.049 179.286,210.215 177.5,211C 133.021,226.644 88.6873,226.31 44.5,210C 14.5623,172.11 0.728947,128.944 3,80.5C 29.6861,41.6374 65.5194,15.3041 110.5,1.5 Z"/></g>
<g><path style="opacity:1" fill="#f7f103" d="M 111.5,13.5 C 116.693,19.6722 117.859,26.6722 115,34.5C 114,35.8333 113,37.1667 112,38.5C 106.185,30.3314 106.018,21.9981 111.5,13.5 Z"/></g>
<g><path style="opacity:1" fill="#f8f206" d="M 118.5,133.5 C 114.167,137.5 109.833,137.5 105.5,133.5C 103.979,130.292 102.312,127.126 100.5,124C 102.371,121.096 104.371,118.263 106.5,115.5C 101.815,110.649 97.3149,105.649 93,100.5C 92.8253,97.8428 92.9919,95.1761 93.5,92.5C 87.5663,91.8887 81.8996,92.722 76.5,95C 69.2643,102.813 62.2643,110.813 55.5,119C 46.3545,125.547 36.3545,127.213 25.5,124C 13.5569,117.278 8.72358,107.112 11,93.5C 12.2559,89.9837 14.2559,86.9837 17,84.5C 19.5166,90.7244 23.35,95.8911 28.5,100C 38.597,103.404 48.597,103.071 58.5,99C 66.5,94.6667 74.5,90.3333 82.5,86C 87.2377,85.8884 91.9044,85.7217 96.5,85.5C 98.0802,82.2772 98.9135,78.9438 99,75.5C 97.0143,73.2585 94.5143,72.2585 91.5,72.5C 80.5997,75.2906 71.5997,81.1239 64.5,90C 51.7582,98.1446 39.9249,96.978 29,86.5C 26.1198,81.3342 25.7864,76.0008 28,70.5C 30.22,65.6156 33.22,61.2822 37,57.5C 38.4755,64.9684 42.3088,70.8017 48.5,75C 53.5,75.6667 58.5,75.6667 63.5,75C 72.344,71.9097 81.344,69.4097 90.5,67.5C 94.4164,67.4701 97.7498,68.8034 100.5,71.5C 103.045,68.2344 103.878,64.5677 103,60.5C 101.972,58.4841 100.305,57.4841 98,57.5C 89.8632,61.1539 81.6966,64.6539 73.5,68C 67.8333,68.6667 62.1667,68.6667 56.5,68C 48.2629,65.0316 45.0963,59.1983 47,50.5C 49.2631,44.4477 53.4298,40.281 59.5,38C 60.635,37.2506 61.635,37.4173 62.5,38.5C 60.9833,43.6848 61.4833,48.6848 64,53.5C 65.7998,55.317 67.9664,56.4837 70.5,57C 75.1667,57.6667 79.8333,57.6667 84.5,57C 91.0238,54.4826 97.6904,53.9826 104.5,55.5C 107.147,53.5971 108.481,50.9304 108.5,47.5C 103.821,47.3342 99.1548,47.5008 94.5,48C 86.5094,53.1376 79.0094,52.6376 72,46.5C 67.3882,36.2122 70.5548,29.2122 81.5,25.5C 81.5876,29.3805 81.7542,33.3805 82,37.5C 83.2506,40.3807 85.4173,42.214 88.5,43C 95.624,43.0477 102.624,43.8811 109.5,45.5C 110.429,44.3112 110.762,42.9778 110.5,41.5C 103.451,42.2821 96.7844,41.1154 90.5,38C 86.744,33.2949 86.5774,28.4615 90,23.5C 93.0568,20.7774 96.3901,18.444 100,16.5C 98.3152,20.5956 97.6485,24.929 98,29.5C 106.218,41.9631 115.218,42.6298 125,31.5C 125.923,29.9656 126.423,28.299 126.5,26.5C 125.725,23.0368 124.892,19.7035 124,16.5C 131.078,18.9058 135.245,23.7391 136.5,31C 135.903,36.9308 132.57,40.2642 126.5,41C 122.179,41.499 117.846,41.6657 113.5,41.5C 113.178,45.439 114.511,46.2723 117.5,44C 123.167,43.6667 128.833,43.3333 134.5,43C 138.02,42.496 140.52,40.6626 142,37.5C 142.246,33.3805 142.412,29.3805 142.5,25.5C 151.162,28.5042 154.996,34.5042 154,43.5C 147.361,52.3112 139.195,53.8112 129.5,48C 124.845,47.5008 120.179,47.3342 115.5,47.5C 115.257,54.7762 118.424,57.1096 125,54.5C 130.646,54.9529 136.146,56.1195 141.5,58C 148.292,59.0178 154.459,57.5178 160,53.5C 162.517,48.6848 163.017,43.6848 161.5,38.5C 168.634,39.4135 173.801,43.4135 177,50.5C 178.962,59.7587 175.462,65.592 166.5,68C 160.833,68.6667 155.167,68.6667 149.5,68C 143.451,66.1419 137.784,63.4752 132.5,60C 120.421,56.5842 117.421,60.4176 123.5,71.5C 126.101,68.9082 129.268,67.5749 133,67.5C 143.046,69.6071 152.88,72.4405 162.5,76C 176.299,77.5563 184.466,71.3896 187,57.5C 194.209,63.915 197.543,71.915 197,81.5C 194.119,89.7029 188.286,94.2029 179.5,95C 172.612,96.3437 166.278,95.0103 160.5,91C 155.167,86.3333 149.833,81.6667 144.5,77C 138.882,73.0878 132.882,72.0878 126.5,74C 125.426,74.7387 124.759,75.7387 124.5,77C 125.542,80.6267 126.875,84.1267 128.5,87.5C 132.336,85.6872 136.336,85.1872 140.5,86C 151.167,91.3333 161.833,96.6667 172.5,102C 189.409,106.382 200.742,100.549 206.5,84.5C 213.117,90.3847 215.283,97.7181 213,106.5C 207.349,122.413 196.182,128.58 179.5,125C 175.673,123.254 172.007,121.254 168.5,119C 161.264,111.187 154.264,103.187 147.5,95C 142.1,92.722 136.434,91.8887 130.5,92.5C 131.008,95.1761 131.175,97.8428 131,100.5C 126.685,105.649 122.185,110.649 117.5,115.5C 119.629,118.263 121.629,121.096 123.5,124C 121.688,127.126 120.021,130.292 118.5,133.5 Z"/></g>
<g><path style="opacity:1" fill="#fefdf9" d="M 111.5,44.5 C 118.164,61.6543 124.164,79.1543 129.5,97C 126.506,103.172 122.173,108.338 116.5,112.5C 115.833,112.167 115.167,111.833 114.5,111.5C 113.63,92.8353 112.796,74.1687 112,55.5C 111.85,74.2029 111.017,92.8696 109.5,111.5C 108.549,112.326 107.549,112.492 106.5,112C 101.307,107.823 97.3068,102.823 94.5,97C 100.067,79.4645 105.734,61.9645 111.5,44.5 Z"/></g>
<g><path style="opacity:1" fill="#fcfbfb" d="M -0.5,96.5 C 1.43415,140.135 16.1008,178.968 43.5,213C 58.644,218.188 73.9773,222.022 89.5,224.5C 59.5,224.5 29.5,224.5 -0.5,224.5C -0.5,181.833 -0.5,139.167 -0.5,96.5 Z"/></g>
<g><path style="opacity:1" fill="#fbfbfb" d="M 224.5,97.5 C 224.5,139.833 224.5,182.167 224.5,224.5C 193.833,224.5 163.167,224.5 132.5,224.5C 144.197,222.831 155.863,220.331 167.5,217C 173.592,215.643 179.092,213.143 184,209.5C 208.696,176.246 222.196,138.913 224.5,97.5 Z"/></g>
<g><path style="opacity:1" fill="#f8fbfa" d="M 105.5,133.5 C 109.833,137.5 114.167,137.5 118.5,133.5C 122.541,133.675 126.541,133.842 130.5,134C 133.546,126.978 138.879,123.144 146.5,122.5C 146.659,128.878 144.993,134.711 141.5,140C 141.833,140.167 142.167,140.333 142.5,140.5C 146.465,137.457 150.965,136.124 156,136.5C 163.589,137.07 171.089,138.237 178.5,140C 186.167,140.333 193.833,140.667 201.5,141C 189.483,150.341 175.816,155.341 160.5,156C 164.547,159.692 169.214,162.359 174.5,164C 163.243,167.43 152.076,167.264 141,163.5C 142.685,168.388 144.185,173.388 145.5,178.5C 138.2,177.773 130.867,177.273 123.5,177C 119.214,176.03 115.38,174.197 112,171.5C 108.147,174.009 103.981,175.842 99.5,177C 92.4666,177.279 85.4666,177.779 78.5,178.5C 79.8155,173.388 81.3155,168.388 83,163.5C 71.8691,167.103 60.7024,167.269 49.5,164C 54.7862,162.359 59.4528,159.692 63.5,156C 48.1956,155.344 34.5289,150.344 22.5,141C 29.5,140.667 36.5,140.333 43.5,140C 51.2998,138.561 59.1332,137.394 67,136.5C 71.7748,136.319 76.2748,137.319 80.5,139.5C 81.041,137.477 80.541,135.477 79,133.5C 78.0642,129.886 77.5642,126.22 77.5,122.5C 85.1206,123.144 90.454,126.978 93.5,134C 97.441,133.733 101.441,133.566 105.5,133.5 Z"/></g>
<g><path style="opacity:1" fill="#3b9add" d="M 129.5,140.5 C 129.953,141.458 130.619,142.292 131.5,143C 130.906,143.464 130.239,143.631 129.5,143.5C 127.71,142.003 125.544,141.336 123,141.5C 119.176,141.911 115.51,142.911 112,144.5C 108.49,142.911 104.824,141.911 101,141.5C 98.4563,141.336 96.2897,142.003 94.5,143.5C 93.7611,143.631 93.0944,143.464 92.5,143C 93.3805,142.292 94.0472,141.458 94.5,140.5C 92.663,140.361 92.3296,139.694 93.5,138.5C 95.3488,136.826 97.5155,135.826 100,135.5C 103.986,136.41 107.819,137.743 111.5,139.5C 116.556,136.883 121.889,136.049 127.5,137C 129.002,137.583 130.335,138.416 131.5,139.5C 131.043,140.298 130.376,140.631 129.5,140.5 Z"/></g>
<g><path style="opacity:1" fill="#b3d9ef" d="M 129.5,140.5 C 125.158,139.343 120.825,139.176 116.5,140C 121.117,136.564 125.45,136.731 129.5,140.5 Z"/></g>
<g><path style="opacity:1" fill="#b9dcf0" d="M 94.5,140.5 C 98.5936,136.769 102.927,136.602 107.5,140C 103.175,139.176 98.8417,139.343 94.5,140.5 Z"/></g>
<g><path style="opacity:1" fill="#b7daef" d="M 129.5,143.5 C 129.5,143.833 129.5,144.167 129.5,144.5C 127.714,143.278 125.714,142.611 123.5,142.5C 119.624,143.404 115.79,144.404 112,145.5C 108.21,144.404 104.376,143.404 100.5,142.5C 98.2857,142.611 96.2857,143.278 94.5,144.5C 94.5,144.167 94.5,143.833 94.5,143.5C 96.2897,142.003 98.4563,141.336 101,141.5C 104.824,141.911 108.49,142.911 112,144.5C 115.51,142.911 119.176,141.911 123,141.5C 125.544,141.336 127.71,142.003 129.5,143.5 Z"/></g>
<g><path style="opacity:1" fill="#3798dd" d="M 129.5,144.5 C 132.186,145.988 131.853,146.655 128.5,146.5C 129.694,147.272 130.694,148.272 131.5,149.5C 128.844,148.842 126.178,148.175 123.5,147.5C 119.624,148.404 115.79,149.404 112,150.5C 100.832,147.938 100.832,148.604 112,152.5C 115.785,151.024 119.618,149.691 123.5,148.5C 125.97,149.237 128.304,150.237 130.5,151.5C 130.907,152.762 131.24,154.095 131.5,155.5C 130.975,156.192 130.308,156.692 129.5,157C 130.381,157.708 131.047,158.542 131.5,159.5C 124.871,156.698 118.371,157.031 112,160.5C 108.49,158.911 104.824,157.911 101,157.5C 98.4563,157.336 96.2897,158.003 94.5,159.5C 92.1582,159.225 92.1582,158.392 94.5,157C 92.6412,156.399 92.3079,155.566 93.5,154.5C 95.7561,153.077 98.2561,152.41 101,152.5C 104.824,152.911 108.49,153.911 112,155.5C 114.321,155.091 116.487,154.257 118.5,153C 122.241,152.498 125.908,152.498 129.5,153C 127.854,151.344 125.854,150.511 123.5,150.5C 119.624,151.404 115.79,152.404 112,153.5C 108.21,152.404 104.376,151.404 100.5,150.5C 98.3115,150.594 96.3115,151.261 94.5,152.5C 93.8933,152.376 93.56,152.043 93.5,151.5C 92.1834,149.124 92.8501,147.457 95.5,146.5C 92.1469,146.655 91.8136,145.988 94.5,144.5C 96.2857,143.278 98.2857,142.611 100.5,142.5C 104.376,143.404 108.21,144.404 112,145.5C 115.79,144.404 119.624,143.404 123.5,142.5C 125.714,142.611 127.714,143.278 129.5,144.5 Z"/></g>
<g><path style="opacity:1" fill="#c1e0f1" d="M 95.5,146.5 C 98.9394,144.042 102.606,143.875 106.5,146C 102.857,145.315 99.1907,145.481 95.5,146.5 Z"/></g>
<g><path style="opacity:1" fill="#daedf5" d="M 128.5,146.5 C 124.828,145.346 121.162,145.179 117.5,146C 121.394,143.875 125.061,144.042 128.5,146.5 Z"/></g>
<g><path style="opacity:1" fill="#d4eaf5" d="M 97.5,147.5 C 103.906,147.649 103.739,148.315 97,149.5C 96.5,149.333 96,149.167 95.5,149C 96.4158,148.722 97.0825,148.222 97.5,147.5 Z"/></g>
<g><path style="opacity:1" fill="#b6dbef" d="M 131.5,149.5 C 131.167,150.167 130.833,150.833 130.5,151.5C 128.304,150.237 125.97,149.237 123.5,148.5C 119.618,149.691 115.785,151.024 112,152.5C 100.832,148.604 100.832,147.938 112,150.5C 115.79,149.404 119.624,148.404 123.5,147.5C 126.178,148.175 128.844,148.842 131.5,149.5 Z"/></g>
<g><path style="opacity:1" fill="#b9ddf0" d="M 98.5,153.5 C 101.688,153.618 104.688,154.451 107.5,156C 103.868,155.923 100.201,155.59 96.5,155C 97.4158,154.722 98.0825,154.222 98.5,153.5 Z"/></g>
<g><path style="opacity:1" fill="#abd5ed" d="M 93.5,154.5 C 92.375,153.348 92.375,152.348 93.5,151.5C 93.56,152.043 93.8933,152.376 94.5,152.5C 96.3115,151.261 98.3115,150.594 100.5,150.5C 104.376,151.404 108.21,152.404 112,153.5C 115.79,152.404 119.624,151.404 123.5,150.5C 125.854,150.511 127.854,151.344 129.5,153C 125.908,152.498 122.241,152.498 118.5,153C 116.487,154.257 114.321,155.091 112,155.5C 108.49,153.911 104.824,152.911 101,152.5C 98.2561,152.41 95.7561,153.077 93.5,154.5 Z"/></g>
<g><path style="opacity:1" fill="#b8dbef" d="M 121.5,153.5 C 123.655,153.372 125.655,153.872 127.5,155C 123.799,155.59 120.132,155.923 116.5,156C 118.315,155.243 119.981,154.41 121.5,153.5 Z"/></g>
<g><path style="opacity:1" fill="#b4daef" d="M 131.5,159.5 C 131.5,160.167 131.5,160.833 131.5,161.5C 128.93,159.801 126.097,158.801 123,158.5C 119.333,159.5 115.667,160.5 112,161.5C 108.333,160.5 104.667,159.5 101,158.5C 98.5897,158.482 96.423,159.149 94.5,160.5C 94.5,160.167 94.5,159.833 94.5,159.5C 96.2897,158.003 98.4563,157.336 101,157.5C 104.824,157.911 108.49,158.911 112,160.5C 118.371,157.031 124.871,156.698 131.5,159.5 Z"/></g>
<g><path style="opacity:1" fill="#1d92db" d="M 131.5,161.5 C 130.791,162.404 129.791,162.737 128.5,162.5C 128.389,161.883 128.056,161.383 127.5,161C 126.167,160.833 124.833,160.667 123.5,160.5C 121.117,160.361 119.117,161.028 117.5,162.5C 113.833,163.833 110.167,163.833 106.5,162.5C 104.883,161.028 102.883,160.361 100.5,160.5C 99.1667,160.667 97.8333,160.833 96.5,161C 95.944,161.383 95.6107,161.883 95.5,162.5C 92.1469,162.655 91.8136,161.988 94.5,160.5C 96.423,159.149 98.5897,158.482 101,158.5C 104.667,159.5 108.333,160.5 112,161.5C 115.667,160.5 119.333,159.5 123,158.5C 126.097,158.801 128.93,159.801 131.5,161.5 Z"/></g>
<g><path style="opacity:1" fill="#424e41" d="M 33.5,168.5 C 32.8333,168.5 32.5,168.833 32.5,169.5C 30.9153,168.998 30.4153,167.998 31,166.5C 31.9947,167.066 32.828,167.733 33.5,168.5 Z"/></g>
<g><path style="opacity:1" fill="#2c5630" d="M 181.5,165.5 C 181.5,166.833 181.5,168.167 181.5,169.5C 182.5,169.5 183.5,169.5 184.5,169.5C 183.432,170.434 182.099,170.768 180.5,170.5C 180.216,168.585 180.549,166.919 181.5,165.5 Z"/></g>
<g><path style="opacity:1" fill="#535f53" d="M 188.5,170.5 C 187.432,169.566 186.099,169.232 184.5,169.5C 186.939,167.965 189.606,167.132 192.5,167C 191.295,168.376 189.962,169.542 188.5,170.5 Z"/></g>
<g><path style="opacity:1" fill="#4d5c4b" d="M 40.5,163.5 C 41.6327,165.055 42.2994,166.889 42.5,169C 42.519,170.792 42.1857,171.292 41.5,170.5C 40.7814,168.236 40.448,165.903 40.5,163.5 Z"/></g>
<g><path style="opacity:1" fill="#ececec" d="M 88.5,187.5 C 90.5145,188.924 92.8478,189.59 95.5,189.5C 100.065,191.04 104.898,191.707 110,191.5C 113.683,191.499 117.183,191.165 120.5,190.5C 127.892,188.985 135.226,187.152 142.5,185C 149.33,181.419 155.997,177.586 162.5,173.5C 164.804,175.431 166.638,177.764 168,180.5C 170.86,174.919 173.526,169.252 176,163.5C 177.571,161.077 179.737,159.744 182.5,159.5C 182.167,161.5 181.833,163.5 181.5,165.5C 180.549,166.919 180.216,168.585 180.5,170.5C 182.099,170.768 183.432,170.434 184.5,169.5C 186.099,169.232 187.432,169.566 188.5,170.5C 186.526,172.428 185.026,174.761 184,177.5C 183.638,183.12 181.472,187.787 177.5,191.5C 174.234,191.567 172.734,189.901 173,186.5C 171.482,187.163 170.315,188.163 169.5,189.5C 159.142,195.845 148.142,200.845 136.5,204.5C 132.884,204.899 129.55,205.899 126.5,207.5C 124.167,207.5 121.833,207.5 119.5,207.5C 111.133,207.705 102.8,207.371 94.5,206.5C 93.8333,206.5 93.1667,206.5 92.5,206.5C 90.4855,205.076 88.1522,204.41 85.5,204.5C 74.2834,200.557 63.6167,195.557 53.5,189.5C 51.8564,188.684 50.6897,187.35 50,185.5C 48.6814,187.25 48.1814,189.25 48.5,191.5C 47.1667,191.5 45.8333,191.5 44.5,191.5C 43.1154,190.426 41.9487,189.093 41,187.5C 39.3492,183.255 38.0159,178.921 37,174.5C 35.9509,172.382 34.4509,170.716 32.5,169.5C 32.5,168.833 32.8333,168.5 33.5,168.5C 36.1123,169.371 38.779,170.037 41.5,170.5C 42.1857,171.292 42.519,170.792 42.5,169C 42.2994,166.889 41.6327,165.055 40.5,163.5C 40.3433,162.127 40.51,160.793 41,159.5C 42.9552,160.453 44.6218,161.787 46,163.5C 48.0172,168.535 50.5172,173.369 53.5,178C 54.1667,178.667 54.8333,178.667 55.5,178C 56.7256,176.365 58.059,174.865 59.5,173.5C 68.2523,180.043 77.9189,184.709 88.5,187.5 Z"/></g>
<g><path style="opacity:1" fill="#2a95dc" d="M 106.5,162.5 C 110.167,165.167 113.833,165.167 117.5,162.5C 121.167,161.167 124.833,161.167 128.5,162.5C 129.172,163.267 130.005,163.934 131,164.5C 131.688,165.332 131.521,165.998 130.5,166.5C 128.395,164.532 125.895,163.532 123,163.5C 119.205,164.648 115.371,165.648 111.5,166.5C 107.954,165.322 104.287,164.322 100.5,163.5C 97.8086,163.679 95.4753,164.679 93.5,166.5C 93.1667,166.167 92.8333,165.833 92.5,165.5C 93.3398,164.265 94.3398,163.265 95.5,162.5C 99.1495,161.272 102.816,161.272 106.5,162.5 Z"/></g>
<g><path style="opacity:1" fill="#cce6f3" d="M 106.5,162.5 C 110.167,163.833 113.833,163.833 117.5,162.5C 113.833,165.167 110.167,165.167 106.5,162.5 Z"/></g>
<g><path style="opacity:1" fill="#b7dbef" d="M 128.5,162.5 C 124.833,161.167 121.167,161.167 117.5,162.5C 119.117,161.028 121.117,160.361 123.5,160.5C 124.833,160.667 126.167,160.833 127.5,161C 128.056,161.383 128.389,161.883 128.5,162.5 Z"/></g>
<g><path style="opacity:1" fill="#d1e9f4" d="M 106.5,162.5 C 102.816,161.272 99.1495,161.272 95.5,162.5C 95.6107,161.883 95.944,161.383 96.5,161C 97.8333,160.833 99.1667,160.667 100.5,160.5C 102.883,160.361 104.883,161.028 106.5,162.5 Z"/></g>
<g><path style="opacity:1" fill="#242121" d="M 150.5,191.5 C 149.928,192.973 149.095,194.307 148,195.5C 146.213,185.636 148.38,184.303 154.5,191.5C 153.443,191.906 152.109,191.906 150.5,191.5 Z"/></g>
<g><path style="opacity:1" fill="#2b2928" d="M 156.5,182.5 C 157.077,181.227 157.743,181.227 158.5,182.5C 161.602,185.964 161.102,188.631 157,190.5C 154.924,189.206 153.424,187.373 152.5,185C 152.667,184.5 152.833,184 153,183.5C 154.051,185.627 155.551,187.293 157.5,188.5C 158.167,188.167 158.833,187.833 159.5,187.5C 158.725,185.604 157.725,183.937 156.5,182.5 Z"/></g>
<g><path style="opacity:1" fill="#201e1d" d="M 177.5,191.5 C 174.549,192.729 171.883,192.062 169.5,189.5C 170.315,188.163 171.482,187.163 173,186.5C 172.734,189.901 174.234,191.567 177.5,191.5 Z"/></g>
<g><path style="opacity:1" fill="#2c542e" d="M 88.5,187.5 C 91.1522,187.41 93.4855,188.076 95.5,189.5C 92.8478,189.59 90.5145,188.924 88.5,187.5 Z"/></g>
<g><path style="opacity:1" fill="#2a2724" d="M 53.5,189.5 C 52.0267,190.072 50.6934,190.905 49.5,192C 47.6131,192.78 45.9464,192.613 44.5,191.5C 45.8333,191.5 47.1667,191.5 48.5,191.5C 48.1814,189.25 48.6814,187.25 50,185.5C 50.6897,187.35 51.8564,188.684 53.5,189.5 Z"/></g>
<g><path style="opacity:1" fill="#191817" d="M 62.5,180.5 C 63.3764,180.369 64.0431,180.702 64.5,181.5C 62.4219,183.428 61.7552,185.595 62.5,188C 63.1667,188.667 63.8333,188.667 64.5,188C 65.3041,186.229 66.4708,184.729 68,183.5C 67.9876,187.844 65.8209,189.678 61.5,189C 60.9415,188.275 60.6082,187.442 60.5,186.5C 61.1776,184.484 61.8443,182.484 62.5,180.5 Z"/></g>
<g><path style="opacity:1" fill="#0b0a09" d="M 82.5,195.5 C 82.189,196.478 81.5223,197.145 80.5,197.5C 79.3452,194.554 79.1786,191.554 80,188.5C 79.9698,191.361 80.8031,193.695 82.5,195.5 Z"/></g>
<g><path style="opacity:1" fill="#a7a6a6" d="M 150.5,191.5 C 148.535,191.052 148.202,190.052 149.5,188.5C 150.386,189.325 150.719,190.325 150.5,191.5 Z"/></g>
<g><path style="opacity:1" fill="#2f2c2b" d="M 69.5,184.5 C 71.0358,186.025 72.0358,188.025 72.5,190.5C 73.5836,189.335 74.4169,188.002 75,186.5C 75.1637,189.522 74.1637,192.189 72,194.5C 70.8372,192.715 70.1705,190.715 70,188.5C 69.1107,189.888 68.6107,189.722 68.5,188C 68.9891,186.862 69.3225,185.695 69.5,184.5 Z"/></g>
<g><path style="opacity:1" fill="#364c35" d="M 95.5,189.5 C 103.805,190.332 112.138,190.665 120.5,190.5C 117.183,191.165 113.683,191.499 110,191.5C 104.898,191.707 100.065,191.04 95.5,189.5 Z"/></g>
<g><path style="opacity:1" fill="#252221" d="M 142.5,188.5 C 143.497,188.47 144.164,188.97 144.5,190C 145.791,192.05 146.291,194.217 146,196.5C 144.544,193.968 143.377,191.301 142.5,188.5 Z"/></g>
<g><path style="opacity:1" fill="#262422" d="M 77.5,188.5 C 78.0431,188.56 78.3764,188.893 78.5,189.5C 77.4981,191.51 76.4981,193.51 75.5,195.5C 75.1667,195.167 74.8333,194.833 74.5,194.5C 75.5133,192.473 76.5133,190.473 77.5,188.5 Z"/></g>
<g><path style="opacity:1" fill="#0a0808" d="M 126.5,194.5 C 127.708,193.218 129.042,193.218 130.5,194.5C 129.443,194.906 128.109,194.906 126.5,194.5 Z"/></g>
<g><path style="opacity:1" fill="#201e1d" d="M 136.5,190.5 C 138.167,190.5 139.833,190.5 141.5,190.5C 141.162,193.325 142.162,195.492 144.5,197C 142.536,197.624 140.869,197.124 139.5,195.5C 138.719,196.729 138.219,198.062 138,199.5C 136.069,196.603 135.569,193.603 136.5,190.5 Z"/></g>
<g><path style="opacity:1" fill="#dad9d9" d="M 137.5,191.5 C 140.957,191.667 141.29,192.667 138.5,194.5C 137.614,193.675 137.281,192.675 137.5,191.5 Z"/></g>
<g><path style="opacity:1" fill="#2b2828" d="M 82.5,195.5 C 83.0476,193.606 84.0476,191.94 85.5,190.5C 87.7954,191.432 90.1287,192.265 92.5,193C 86.6595,193.563 86.3261,194.73 91.5,196.5C 91.1667,196.833 90.8333,197.167 90.5,197.5C 85.2838,196.857 85.2838,197.69 90.5,200C 88.1913,200.756 86.1913,200.256 84.5,198.5C 87.7776,192.65 87.1109,191.65 82.5,195.5 Z"/></g>
<g><path style="opacity:1" fill="#1c1b1a" d="M 126.5,194.5 C 128.6,195.83 130.6,197.33 132.5,199C 130.661,201.898 128.327,202.231 125.5,200C 127.107,200.019 128.774,200.185 130.5,200.5C 130.5,199.5 130.5,198.5 130.5,197.5C 128.833,197.5 127.167,197.5 125.5,197.5C 125.263,196.209 125.596,195.209 126.5,194.5 Z"/></g>
<g><path style="opacity:1" fill="#1d1a19" d="M 93.5,193.5 C 94.2389,193.369 94.9056,193.536 95.5,194C 94.6634,195.011 94.33,196.178 94.5,197.5C 95.9778,197.762 97.3112,197.429 98.5,196.5C 97.4937,195.604 97.4937,194.938 98.5,194.5C 99.8304,196.347 99.497,197.847 97.5,199C 98.7717,200.246 99.105,201.413 98.5,202.5C 97.5,201.167 96.5,199.833 95.5,198.5C 94.8333,199.5 94.1667,200.5 93.5,201.5C 92.795,198.911 92.795,196.244 93.5,193.5 Z"/></g>
<g><path style="opacity:1" fill="#33302f" d="M 102.5,194.5 C 104.681,194.284 106.347,195.117 107.5,197C 101.069,196.156 100.903,196.989 107,199.5C 107.611,203.088 106.111,204.254 102.5,203C 101.833,202.333 101.167,201.667 100.5,201C 102.225,201.409 103.892,201.242 105.5,200.5C 101.803,199.715 100.803,197.715 102.5,194.5 Z"/></g>
<g><path style="opacity:1" fill="#43403e" d="M 108.5,195.5 C 109.748,196.334 110.415,197.667 110.5,199.5C 110.167,200.833 109.833,202.167 109.5,203.5C 108.52,200.914 108.187,198.247 108.5,195.5 Z"/></g>
<g><path style="opacity:1" fill="#242120" d="M 111.5,196.5 C 113.288,195.378 115.288,195.211 117.5,196C 116.004,198.201 115.004,200.701 114.5,203.5C 114.062,200.705 113.062,198.372 111.5,196.5 Z"/></g>
<g><path style="opacity:1" fill="#444140" d="M 119.5,194.5 C 120.496,194.414 121.329,194.748 122,195.5C 123.039,197.746 124.206,199.913 125.5,202C 124.197,202.21 122.864,202.043 121.5,201.5C 120.328,201.919 119.328,202.585 118.5,203.5C 118.167,203 117.833,202.5 117.5,202C 118.479,199.567 119.145,197.067 119.5,194.5 Z"/></g>
<g><path style="opacity:1" fill="#5c655a" d="M 85.5,204.5 C 88.1522,204.41 90.4855,205.076 92.5,206.5C 89.8478,206.59 87.5145,205.924 85.5,204.5 Z"/></g>
<g><path style="opacity:1" fill="#375c38" d="M 136.5,204.5 C 133.548,206.41 130.214,207.41 126.5,207.5C 129.55,205.899 132.884,204.899 136.5,204.5 Z"/></g>
<g><path style="opacity:1" fill="#636c61" d="M 94.5,206.5 C 102.8,207.371 111.133,207.705 119.5,207.5C 112.345,208.655 105.012,208.822 97.5,208C 96.2625,207.768 95.2625,207.268 94.5,206.5 Z"/></g>
</svg>
